<svg t="1582460893889" class="icon" viewBox="0 0 1024 1024" version="1.1" xmlns="http://www.w3.org/2000/svg" p-id="2431" width="128" height="128"><path d="M923.75 339.17a449 449 0 1 0 35.19 174.26 446.13 446.13 0 0 0-35.19-174.26zM511.29 897.08c-211.54 0-383.65-172.1-383.65-383.65s172.1-383.65 383.65-383.65 383.65 172.1 383.65 383.65-172.11 383.65-383.65 383.65z" p-id="2432"></path><path d="M511.29 298.24a28.54 28.54 0 0 0 28.54-28.54v-44.8a28.54 28.54 0 0 0-28.54-28.54 28.54 28.54 0 0 0-28.54 28.54v44.8a28.54 28.54 0 0 0 28.54 28.54zM437.69 311.22a28.54 28.54 0 0 0 17.06-36.58l-15.32-42.09a28.54 28.54 0 0 0-36.58-17.06 28.54 28.54 0 0 0-17.06 36.58l15.32 42.09a28.54 28.54 0 0 0 36.58 17.06zM347.69 274.06a28.54 28.54 0 0 0-40.21-3.52 28.54 28.54 0 0 0-3.48 40.21l28.79 34.31a28.54 28.54 0 0 0 40.21 3.52 28.54 28.54 0 0 0 3.52-40.21zM314.48 366.84l-38.79-22.4a28.54 28.54 0 0 0-39 10.45 28.54 28.54 0 0 0 10.45 39l38.79 22.4a28.54 28.54 0 1 0 28.54-49.44zM222.19 491.43l44.11 7.78a28.54 28.54 0 0 0 33.07-23.15A28.54 28.54 0 0 0 276.22 443l-44.11-7.78A28.54 28.54 0 0 0 199 458.37a28.54 28.54 0 0 0 23.19 33.06zM299.37 550.79a28.54 28.54 0 0 0-33.07-23.15l-44.11 7.78A28.54 28.54 0 0 0 199 568.49a28.54 28.54 0 0 0 33.07 23.15l44.11-7.78a28.54 28.54 0 0 0 23.19-33.07zM324.93 621a28.54 28.54 0 0 0-39-10.45L247.15 633a28.54 28.54 0 0 0-10.45 39 28.54 28.54 0 0 0 39 10.45L314.48 660a28.54 28.54 0 0 0 10.45-39zM775.43 633l-38.79-22.4a28.54 28.54 0 0 0-39 10.45 28.54 28.54 0 0 0 10.45 39l38.79 22.4a28.54 28.54 0 0 0 39-10.45 28.54 28.54 0 0 0-10.45-39zM800.39 535.42l-44.11-7.78a28.54 28.54 0 0 0-33.07 23.15 28.54 28.54 0 0 0 23.15 33.07l44.11 7.78a28.54 28.54 0 0 0 33.07-23.15 28.54 28.54 0 0 0-23.15-33.07zM723.21 476.06a28.54 28.54 0 0 0 33.07 23.15l44.11-7.78a28.54 28.54 0 0 0 23.15-33.07 28.54 28.54 0 0 0-33.07-23.15L746.36 443a28.54 28.54 0 0 0-23.15 33.06zM746.89 344.45l-38.79 22.4a28.54 28.54 0 0 0-10.45 39 28.54 28.54 0 0 0 39 10.45l38.79-22.4a28.54 28.54 0 1 0-28.54-49.44zM584.89 311.22a28.54 28.54 0 0 0 36.58-17.06l15.32-42.09a28.54 28.54 0 0 0-17.06-36.58 28.54 28.54 0 0 0-36.58 17.06l-15.32 42.09a28.54 28.54 0 0 0 17.06 36.58z" p-id="2433"></path><path d="M760.68 291.94l-28.28-28.28L720.09 276a28.58 28.58 0 0 0-5-5.43 28.54 28.54 0 0 0-40.21 3.52l-28.79 34.31a28.54 28.54 0 0 0 2.38 39.21l-83.16 83.16a100 100 0 1 0 28.92 27.65zM566.12 515.39a56.53 56.53 0 1 1-33.73-51.73l-17.28 17.28a35.32 35.32 0 1 0 29.65 26.92l16.16-16.16a56.29 56.29 0 0 1 5.2 23.69z" p-id="2434"></path></svg>