<svg t="1585032293275" class="icon" viewBox="0 0 1024 1024" version="1.1" xmlns="http://www.w3.org/2000/svg" p-id="3883" width="128" height="128"><path d="M847 912H175a64.07 64.07 0 0 1-64-64V176a64.07 64.07 0 0 1 64-64h672a64.07 64.07 0 0 1 64 64v672a64.07 64.07 0 0 1-64 64zM175 176v672h672V176z" p-id="3884"></path><path d="M271 480m32 0l416 0q32 0 32 32l0 0q0 32-32 32l-416 0q-32 0-32-32l0 0q0-32 32-32Z" p-id="3885"></path><path d="M543 272m0 32l0 416q0 32-32 32l0 0q-32 0-32-32l0-416q0-32 32-32l0 0q32 0 32 32Z" p-id="3886"></path></svg>